<?xml version="1.0" encoding="UTF-8" standalone="no"?>
<!-- Created with Inkscape (http://www.inkscape.org/) -->

<svg
   xmlns:dc="http://purl.org/dc/elements/1.1/"
   xmlns:cc="http://creativecommons.org/ns#"
   xmlns:rdf="http://www.w3.org/1999/02/22-rdf-syntax-ns#"
   xmlns:svg="http://www.w3.org/2000/svg"
   xmlns="http://www.w3.org/2000/svg"
   xmlns:xlink="http://www.w3.org/1999/xlink"
   version="1.1"
   width="100"
   height="100"
   viewBox="0 0 100 100"
   id="Ebene_1"
   xml:space="preserve"><metadata
     id="metadata45"><rdf:RDF><cc:Work
         rdf:about=""><dc:format>image/svg+xml</dc:format><dc:type
           rdf:resource="http://purl.org/dc/dcmitype/StillImage" /><dc:title></dc:title></cc:Work></rdf:RDF></metadata><defs
     id="defs43" /><g
     transform="matrix(0.99807371,0,0,1.0058237,-35.037377,-52.5734)"
     id="g3"><defs
       id="defs5"><rect
         width="100.193"
         height="99.421997"
         x="35.105"
         y="52.269001"
         id="SVGID_1_" /></defs><clipPath
       id="SVGID_2_"><use
         id="use9"
         style="overflow:visible"
         x="0"
         y="0"
         width="170.40401"
         height="203.959"
         xlink:href="#SVGID_1_" /></clipPath><path
       d="m 62.322,96.905 c -0.351,1.182 -1.407,1.624 -2.549,1.624 -0.242,0 -0.857,-0.02 -1.451,-0.423 -0.989,-0.665 -1.033,-1.778 -1.033,-2.847 v -6.604 c 0,-0.49 0.022,-0.801 0.177,-1.269 0.483,-1.492 1.933,-1.556 2.373,-1.556 2.549,0 2.528,2.311 2.528,3.002 v 0.978 h -0.924 v -0.868 c 0,-0.487 -0.044,-0.755 -0.087,-0.978 -0.176,-0.778 -0.661,-1.312 -1.495,-1.312 -1.033,0 -1.386,0.71 -1.494,1.066 -0.133,0.38 -0.133,0.936 -0.133,1.003 v 6.248 c 0,0.045 -0.022,1.068 0.154,1.624 0.154,0.445 0.528,1.046 1.583,1.046 0.967,0 1.318,-0.623 1.428,-0.978 0.087,-0.269 0.11,-0.56 0.11,-0.847 V 94.19 h 0.945 v 1.446 c 0,0.692 -0.022,0.936 -0.132,1.269"
       clip-path="url(#SVGID_2_)"
       id="path11"
       style="fill:#010202" /><path
       d="m 69.685,88.61 c 0,-0.645 -0.066,-1.246 -0.637,-1.646 -0.175,-0.133 -0.462,-0.269 -0.923,-0.269 -0.176,0 -0.659,0 -1.056,0.313 -0.659,0.491 -0.659,1.179 -0.659,1.892 v 6.849 c 0,0.112 0,0.445 0.066,0.732 0.198,0.76 0.792,1.114 1.539,1.114 0.989,0 1.363,-0.578 1.516,-0.956 0.088,-0.223 0.154,-0.468 0.154,-0.978 V 88.61 z m 0.792,8.141 c -0.462,1.624 -1.979,1.759 -2.462,1.759 -0.946,0 -1.978,-0.423 -2.352,-1.381 -0.176,-0.423 -0.198,-0.911 -0.198,-1.356 v -7.316 c 0,-0.668 0.044,-1.137 0.462,-1.691 0.308,-0.446 0.967,-1.001 2.198,-1.001 0.681,0 1.341,0.155 1.847,0.646 0.218,0.222 0.395,0.531 0.505,0.822 0.153,0.445 0.153,0.847 0.153,1.291 v 6.781 c 0,0.512 -0.022,1.001 -0.153,1.446"
       clip-path="url(#SVGID_2_)"
       id="path13"
       style="fill:#010202" /><path
       d="m 82.213,98.465 v -9.453 c 0,-1.247 0,-1.892 -0.616,-2.247 -0.108,-0.067 -0.395,-0.178 -0.768,-0.178 -0.616,0.023 -1.099,0.268 -1.45,0.733 -0.22,0.312 -0.287,0.49 -0.353,0.646 V 98.465 H 78.082 V 88.188 c 0,-0.045 0,-0.444 -0.089,-0.688 -0.175,-0.6 -0.724,-0.937 -1.317,-0.937 -0.726,0 -1.188,0.424 -1.342,0.578 -0.197,0.201 -0.242,0.269 -0.44,0.646 V 98.464 H 73.971 V 85.831 h 0.946 v 0.934 c 0.153,-0.201 0.285,-0.311 0.352,-0.378 0.219,-0.2 0.879,-0.69 1.713,-0.69 1.276,0.022 1.694,0.936 1.891,1.336 0.241,-0.355 0.879,-1.356 2.22,-1.356 0.351,0 1.34,0.11 1.802,1.111 0.264,0.556 0.264,1.134 0.264,2.314 v 9.363 h -0.946 z"
       clip-path="url(#SVGID_2_)"
       id="path15"
       style="fill:#010202" /><path
       d="m 94.986,98.465 v -9.453 c 0,-1.247 0,-1.892 -0.613,-2.247 -0.11,-0.067 -0.397,-0.178 -0.771,-0.178 -0.616,0.023 -1.099,0.268 -1.45,0.733 -0.22,0.312 -0.287,0.49 -0.353,0.646 V 98.465 H 90.854 V 88.188 c 0,-0.045 0,-0.444 -0.088,-0.688 -0.175,-0.6 -0.724,-0.937 -1.319,-0.937 -0.724,0 -1.186,0.424 -1.34,0.578 -0.197,0.201 -0.242,0.269 -0.439,0.646 V 98.464 H 86.745 V 85.831 h 0.946 v 0.934 c 0.153,-0.201 0.285,-0.311 0.351,-0.378 0.221,-0.2 0.881,-0.69 1.715,-0.69 1.275,0.022 1.693,0.936 1.891,1.336 0.241,-0.355 0.879,-1.356 2.221,-1.356 0.351,0 1.34,0.11 1.801,1.111 0.265,0.556 0.265,1.134 0.265,2.314 v 9.363 h -0.949 z"
       clip-path="url(#SVGID_2_)"
       id="path17"
       style="fill:#010202" /><path
       d="m 103.429,88.61 c 0,-0.645 -0.066,-1.246 -0.637,-1.646 -0.176,-0.133 -0.463,-0.269 -0.924,-0.269 -0.176,0 -0.658,0 -1.055,0.313 -0.66,0.491 -0.66,1.179 -0.66,1.892 v 6.849 c 0,0.112 0,0.445 0.066,0.732 0.197,0.76 0.792,1.114 1.539,1.114 0.988,0 1.363,-0.578 1.516,-0.956 0.088,-0.223 0.154,-0.468 0.154,-0.978 V 88.61 z m 0.792,8.141 c -0.462,1.624 -1.979,1.759 -2.462,1.759 -0.945,0 -1.979,-0.423 -2.352,-1.381 -0.177,-0.423 -0.199,-0.911 -0.199,-1.356 v -7.316 c 0,-0.668 0.045,-1.137 0.463,-1.691 0.308,-0.446 0.967,-1.001 2.197,-1.001 0.682,0 1.342,0.155 1.846,0.646 0.22,0.222 0.396,0.531 0.507,0.822 0.153,0.445 0.153,0.847 0.153,1.291 v 6.781 c 0.001,0.512 -0.022,1.001 -0.153,1.446"
       clip-path="url(#SVGID_2_)"
       id="path19"
       style="fill:#010202" /><path
       d="M 111.892,98.465 V 88.056 c -0.021,-0.09 -0.021,-0.4 -0.11,-0.69 -0.11,-0.287 -0.44,-0.868 -1.253,-0.847 -0.637,0 -1.209,0.336 -1.561,0.847 -0.109,0.154 -0.154,0.245 -0.285,0.556 v 10.544 h -0.924 V 85.831 h 0.924 V 86.9 c 0.176,-0.29 0.309,-0.424 0.418,-0.536 0.593,-0.601 1.316,-0.668 1.625,-0.668 0.9,0.022 1.715,0.468 1.979,1.424 0.088,0.312 0.11,0.6 0.11,0.913 v 10.432 h -0.923 z"
       clip-path="url(#SVGID_2_)"
       id="path21"
       style="fill:#010202" /><path
       d="m 62.86,108.872 c -0.154,-0.844 -0.791,-1.58 -1.714,-1.559 -0.11,0 -0.506,0.023 -0.814,0.225 -0.681,0.467 -0.681,1.268 -0.681,1.979 v 6.605 c 0,0.668 0,1.424 0.571,1.869 0.374,0.266 0.726,0.266 0.902,0.266 0.307,0 1.011,-0.133 1.451,-0.889 0.108,-0.199 0.175,-0.357 0.285,-0.777 v -7.719 z m 0.769,12.168 c -0.396,1.154 -1.429,1.666 -2.571,1.666 -0.813,0 -1.824,-0.311 -2.198,-1.135 -0.154,-0.309 -0.197,-0.6 -0.242,-1.246 h 0.946 c 0.021,0.092 0,0.49 0.153,0.824 0.33,0.646 1.231,0.646 1.362,0.646 0.22,0 1.253,-0.068 1.627,-0.936 0.087,-0.199 0.132,-0.398 0.132,-0.822 v -1.848 c -0.263,0.266 -0.836,0.98 -1.935,0.98 -0.197,0 -0.725,-0.045 -1.186,-0.336 -0.989,-0.621 -0.989,-1.734 -0.989,-2.758 v -7.094 c 0,-0.424 0.022,-0.736 0.153,-1.156 0.44,-1.312 1.737,-1.381 2.11,-1.381 1.099,0 1.627,0.713 1.847,1.023 v -0.91 h 0.946 v 13.166 c 10e-4,0.202 0.044,0.739 -0.155,1.317"
       clip-path="url(#SVGID_2_)"
       id="path23"
       style="fill:#010202" /><path
       d="m 69.763,107.87 c -0.901,0.535 -1.341,1.758 -1.429,1.982 v 9.34 H 67.411 V 106.56 h 0.901 v 1.957 c 0.242,-0.557 0.418,-0.756 0.66,-1.047 0.395,-0.424 0.769,-0.756 1.647,-1.201 v 1.268 c -0.285,0.091 -0.614,0.179 -0.856,0.333"
       clip-path="url(#SVGID_2_)"
       id="path25"
       style="fill:#010202" /><path
       d="m 77.214,109.339 c 0,-0.646 -0.066,-1.246 -0.637,-1.646 -0.175,-0.133 -0.462,-0.268 -0.923,-0.268 -0.176,0 -0.659,0 -1.056,0.312 -0.659,0.49 -0.659,1.18 -0.659,1.893 v 6.848 c 0,0.113 0,0.445 0.066,0.732 0.198,0.76 0.792,1.115 1.539,1.115 0.989,0 1.363,-0.578 1.516,-0.957 0.088,-0.223 0.154,-0.469 0.154,-0.979 v -7.05 z m 0.792,8.139 c -0.462,1.625 -1.979,1.76 -2.462,1.76 -0.946,0 -1.978,-0.424 -2.352,-1.381 -0.176,-0.424 -0.198,-0.912 -0.198,-1.355 v -7.318 c 0,-0.668 0.044,-1.135 0.462,-1.689 0.308,-0.447 0.967,-1.002 2.198,-1.002 0.681,0 1.341,0.154 1.847,0.646 0.218,0.221 0.395,0.531 0.505,0.822 0.153,0.445 0.153,0.846 0.153,1.291 v 6.781 c 0,0.513 -0.022,1.001 -0.153,1.445"
       clip-path="url(#SVGID_2_)"
       id="path27"
       style="fill:#010202" /><path
       d="m 85.522,119.192 v -1.047 c -0.088,0.111 -0.153,0.225 -0.351,0.424 -0.44,0.424 -1.033,0.688 -1.649,0.688 -0.636,0 -1.274,-0.287 -1.647,-0.822 -0.396,-0.533 -0.441,-1.18 -0.441,-1.803 v -10.074 h 0.924 v 9.721 c 0,0.689 0.065,1.645 0.835,2.023 0.109,0.068 0.307,0.133 0.615,0.133 0.264,0 0.923,-0.088 1.341,-0.688 0.154,-0.223 0.285,-0.514 0.373,-0.756 v -10.434 h 0.946 v 12.635 h -0.946 z"
       clip-path="url(#SVGID_2_)"
       id="path29"
       style="fill:#010202" /><path
       d="m 94.316,119.192 v -10.408 c -0.021,-0.09 -0.021,-0.4 -0.109,-0.691 -0.11,-0.287 -0.44,-0.869 -1.254,-0.846 -0.637,0 -1.209,0.336 -1.56,0.846 -0.11,0.154 -0.155,0.244 -0.286,0.557 v 10.543 h -0.923 v -12.635 h 0.923 v 1.07 c 0.176,-0.291 0.309,-0.424 0.418,-0.537 0.594,-0.6 1.317,-0.668 1.625,-0.668 0.901,0.023 1.715,0.469 1.979,1.424 0.088,0.314 0.11,0.602 0.11,0.914 v 10.432 h -0.923 z"
       clip-path="url(#SVGID_2_)"
       id="path31"
       style="fill:#010202" /><path
       d="m 102.845,109.429 c -0.045,-0.201 -0.133,-1.268 -0.901,-1.76 -0.263,-0.154 -0.528,-0.221 -0.835,-0.221 -0.704,0 -1.231,0.488 -1.43,1.135 -0.088,0.266 -0.088,0.555 -0.088,0.824 v 6.871 c 0,0.689 0.022,1.336 0.572,1.822 0.264,0.225 0.594,0.334 0.945,0.334 0.945,0 1.582,-0.779 1.736,-1.625 v -7.38 z m 0.045,9.763 v -1.18 c -0.09,0.201 -0.221,0.357 -0.353,0.512 -0.221,0.268 -0.726,0.756 -1.67,0.756 -0.287,0 -1.188,-0.064 -1.737,-0.865 -0.418,-0.602 -0.461,-1.291 -0.461,-1.961 v -7.07 c 0,-0.312 -0.066,-1.691 0.967,-2.424 0.197,-0.156 0.615,-0.402 1.252,-0.402 1.188,0 1.693,0.734 1.957,1.047 v -5.562 h 0.924 v 17.149 h -0.879 z"
       clip-path="url(#SVGID_2_)"
       id="path33"
       style="fill:#010202" /><path
       d="m 110.826,118.946 c -0.242,0.111 -0.66,0.291 -1.319,0.291 -0.55,0 -1.121,-0.111 -1.604,-0.402 -0.066,-0.043 -0.308,-0.221 -0.484,-0.4 -0.065,-0.088 -0.131,-0.178 -0.219,-0.379 -0.221,-0.443 -0.33,-0.865 -0.33,-1.846 v -0.955 h 0.924 v 0.645 c 0,0.533 -0.023,1.291 0.308,1.801 0.153,0.246 0.351,0.355 0.438,0.4 0.418,0.223 0.791,0.223 0.968,0.223 0.131,0 0.461,0.023 0.791,-0.133 0.681,-0.289 0.834,-1.09 0.834,-1.734 0,-1.607 -3.845,-5.398 -3.845,-7.539 0,-0.848 0.176,-2.402 2.33,-2.402 2.351,0 2.308,1.914 2.308,2.691 v 0.756 h -0.946 v -0.801 c 0,-0.646 -0.064,-1.4 -0.77,-1.67 -0.241,-0.086 -0.549,-0.086 -0.614,-0.086 -0.924,0 -1.364,0.441 -1.364,1.424 0,1.84 3.848,5.811 3.848,7.627 -0.002,1.534 -0.62,2.177 -1.254,2.489"
       clip-path="url(#SVGID_2_)"
       id="path35"
       style="fill:#010202" /><path
       d="m 90.058,56.81 c -8.875,0 -19.079,1.938 -29.505,5.601 -12.29,4.319 -18.517,9.531 -21.492,17.989 -2.902,8.254 -2.649,19.323 -1.888,36.572 1.04,23.584 22.692,34.141 43.69,34.141 8.822,0 17.617,-1.891 24.765,-5.324 11.917,-5.725 21.365,-19.477 24.659,-35.891 3.137,-15.634 0.049,-30.61 -8.259,-40.064 C 114.435,61.191 103.677,56.81 90.058,56.81 m -9.195,94.736 c -21.201,0 -43.065,-10.686 -44.116,-34.555 -0.765,-17.302 -1.017,-28.408 1.912,-36.736 3.023,-8.597 9.325,-13.885 21.755,-18.253 10.472,-3.68 20.722,-5.624 29.645,-5.624 13.748,0 24.613,4.43 32.291,13.168 8.396,9.554 11.52,24.672 8.356,40.438 -3.319,16.545 -12.858,30.414 -24.894,36.195 -7.205,3.461 -16.064,5.367 -24.949,5.367"
       clip-path="url(#SVGID_2_)"
       id="path37"
       style="fill:#010202" /><path
       d="m 78.414,54.723 c -12.083,0 -22.666,8.089 -32.358,24.727 -8.525,14.639 -10.667,28.206 -6.367,40.327 6.444,18.168 24.535,26.053 29.925,28.039 13.247,4.875 41.043,-2.461 57.482,-25.625 12.125,-17.086 3.962,-38.795 -10.933,-49.912 C 103.949,63.16 90.919,54.723 78.414,54.723 m 0.312,96.967 c -3.767,0 -7.111,-0.527 -9.94,-1.57 C 63.144,148.046 44.208,139.778 37.407,120.604 32.853,107.766 35.061,93.5 43.967,78.203 54.132,60.751 65.399,52.268 78.414,52.268 c 13.207,0 26.64,8.668 39.189,18.034 9.098,6.79 15.155,16.151 17.061,26.361 1.791,9.595 -0.25,19.419 -5.598,26.958 -13.761,19.39 -35.199,28.069 -50.34,28.069"
       clip-path="url(#SVGID_2_)"
       id="path39"
       style="fill:#010202" /></g></svg>